<svg id="Layer_1" data-name="Layer 1" xmlns="http://www.w3.org/2000/svg" xmlns:xlink="http://www.w3.org/1999/xlink" viewBox="0 0 533.11 525.45"><defs><style>.cls-1{fill:#2a2a2a;}.cls-2{fill:url(#linear-gradient);}.cls-3{fill:url(#linear-gradient-2);}.cls-4{opacity:0.53;}.cls-5{fill:#fff;}</style><linearGradient id="linear-gradient" x1="208.76" y1="187.04" x2="331.98" y2="187.04" gradientUnits="userSpaceOnUse"><stop offset="0" stop-color="#fff"/><stop offset="1"/></linearGradient><linearGradient id="linear-gradient-2" x1="147.95" y1="321.7" x2="393.09" y2="321.7" xlink:href="#linear-gradient"/></defs><circle class="cls-1" cx="270.52" cy="264.22" r="235.15"/><path class="cls-2" d="M208.77,186.78q0-23.76,0-47.5c0-30.88,23.53-56.6,54.77-60,31.4-3.42,60.93,18,67,48.54A73.06,73.06,0,0,1,332,142.4c-.05,30.31,0,60.61,0,90.91-.05,33.22-23.41,58.62-58.44,61.65-26.75,2.3-56.46-15.43-63.55-47.7a62.49,62.49,0,0,1-1.12-13c-.13-15.83-.05-31.67-.05-47.5Z"/><path class="cls-3" d="M272.19,418.33c-15.56,0-31.11.09-46.66,0-10.16-.07-16.51-5.88-16.7-15-.19-9.26,5.75-15.43,15.93-15.87,8.17-.35,16.37-.25,24.55,0,4.12.11,6.27-1,5.63-5.48a12.65,12.65,0,0,1,0-1.63c-.06-6.82,2-14.69-.75-20.17-2.92-5.86-12-4-18.3-5.9-50-15.22-84.37-58.21-87.87-110.29-.72-10.68,5.05-18.16,14.57-18.91,9.35-.73,16.34,6.08,17.13,16.71,3.3,44,38.41,81.13,80.18,84.68,47.88,4.08,88.36-24.51,99.25-70.26a110.76,110.76,0,0,0,2.2-15.33c.91-9.84,8-16.53,17.16-15.8S393.8,233,393,243.25c-3.7,48.82-28.06,83.57-72,104.83a112,112,0,0,1-30.29,9.25c-3.93.66-4.63,2.16-4.79,5.7-1.13,24.37-1.21,24.36,22.74,24.37,4.09,0,8.22-.29,12.26.18,8.63,1,14.57,7.94,14.24,16.07s-6.62,14.49-15.57,14.61C303.84,418.48,288,418.32,272.19,418.33Z"/><g class="cls-4"><path class="cls-5" d="M196.88,449l-2,5.93h-2.51L198.82,436h2.94l6.43,18.87h-2.6l-2-5.93Zm6.19-1.91-1.85-5.43c-.42-1.23-.7-2.35-1-3.44h-.05c-.28,1.12-.59,2.26-.95,3.41l-1.85,5.46Z"/><path class="cls-5" d="M215.36,436v18.87h-2.43V436Z"/><path class="cls-5" d="M232.53,449l-2,5.93h-2.52L234.46,436h2.94l6.44,18.87h-2.61l-2-5.93Zm6.19-1.91-1.85-5.43c-.42-1.23-.7-2.35-1-3.44h-.06c-.28,1.12-.59,2.26-1,3.41L233,447.07Z"/><path class="cls-5" d="M248.24,451.94a8.62,8.62,0,0,0,4.36,1.23c2.5,0,4-1.31,4-3.22,0-1.76-1-2.77-3.55-3.75-3.08-1.09-5-2.68-5-5.34,0-2.94,2.44-5.13,6.11-5.13a8.52,8.52,0,0,1,4.17.93l-.68,2a7.55,7.55,0,0,0-3.58-.89c-2.57,0-3.55,1.54-3.55,2.83,0,1.76,1.14,2.63,3.75,3.64,3.19,1.23,4.81,2.77,4.81,5.54s-2.15,5.43-6.6,5.43a9.8,9.8,0,0,1-4.82-1.2Z"/><path class="cls-5" d="M264,451.94a8.65,8.65,0,0,0,4.37,1.23c2.49,0,3.95-1.31,3.95-3.22,0-1.76-1-2.77-3.56-3.75-3.08-1.09-5-2.68-5-5.34,0-2.94,2.43-5.13,6.1-5.13a8.52,8.52,0,0,1,4.17.93l-.67,2a7.62,7.62,0,0,0-3.58-.89c-2.58,0-3.56,1.54-3.56,2.83,0,1.76,1.15,2.63,3.75,3.64,3.19,1.23,4.82,2.77,4.82,5.54s-2.16,5.43-6.61,5.43a9.8,9.8,0,0,1-4.82-1.2Z"/><path class="cls-5" d="M282.54,436v18.87H280.1V436Z"/><path class="cls-5" d="M292.34,438.11H286.6V436h14v2.07H294.8v16.8h-2.46Z"/><path class="cls-5" d="M305.58,449l-2,5.93H301.1L307.51,436h2.94l6.44,18.87h-2.6l-2-5.93Zm6.19-1.91-1.85-5.43c-.42-1.23-.7-2.35-1-3.44h-.06c-.28,1.12-.58,2.26-.95,3.41l-1.85,5.46Z"/><path class="cls-5" d="M321.62,454.91V436h2.66l6.05,9.55a54.06,54.06,0,0,1,3.39,6.13l0,0c-.22-2.52-.28-4.81-.28-7.75V436h2.3v18.87h-2.46l-6-9.57a60.93,60.93,0,0,1-3.52-6.3l-.09,0c.14,2.37.2,4.64.2,7.78v8.06Z"/><path class="cls-5" d="M345.59,438.11h-5.74V436h14v2.07h-5.77v16.8h-2.46Z"/></g></svg>